<svg xmlns="http://www.w3.org/2000/svg" xmlns:xlink="http://www.w3.org/1999/xlink" width="500" zoomAndPan="magnify" viewBox="0 0 375 374.999991" height="500" preserveAspectRatio="xMidYMid meet" version="1.0"><defs><clipPath id="9ee7cb843b"><path d="M 75 38 L 307 38 L 307 337.5 L 75 337.5 Z M 75 38 " clip-rule="nonzero"/></clipPath></defs><g clip-path="url(#9ee7cb843b)"><path fill="#000000" d="M 195.410156 337.023438 C 166.417969 336.503906 140.160156 327.441406 119.441406 310.746094 C 100.285156 295.355469 86.667969 274.488281 80.023438 250.296875 C 73.441406 226.167969 74.550781 200.152344 83.214844 177.066406 C 92.726562 151.765625 110.839844 130.246094 135.597656 114.921875 C 136.25 114.597656 136.96875 114.074219 137.683594 113.617188 C 139.898438 112.050781 142.441406 110.355469 145.371094 111.269531 C 147.066406 111.792969 148.304688 112.898438 149.476562 114.007812 C 150.390625 114.855469 151.238281 115.574219 152.277344 116.09375 C 153.125 116.488281 154.429688 116.746094 155.339844 116.226562 C 155.796875 115.964844 156.320312 115.574219 156.320312 115.183594 C 156.320312 114.074219 153.90625 112.445312 153.0625 111.855469 L 152.929688 111.855469 C 142.832031 105.921875 133.382812 98.683594 124.328125 91.707031 C 120.417969 88.707031 116.378906 85.644531 112.339844 82.707031 C 111.882812 82.382812 110.515625 81.402344 110.773438 80.101562 C 111.035156 78.859375 112.46875 78.40625 113.707031 78.078125 C 117.03125 77.296875 120.417969 76.382812 123.742188 75.535156 C 124.066406 73.710938 125.109375 71.882812 127 70.058594 L 112.339844 73.644531 C 111.363281 73.90625 110.058594 74.164062 109.339844 73.316406 C 108.558594 72.46875 109.015625 71.230469 109.144531 70.839844 L 109.339844 70.320312 C 111.753906 63.667969 115.074219 54.539062 122.503906 51.929688 C 131.691406 48.667969 141.332031 46.257812 150.648438 43.972656 C 154.167969 42.867188 157.035156 42.800781 159.25 43.714844 C 163.355469 41.171875 167.917969 39.410156 173.78125 39.214844 C 175.277344 39.214844 176.386719 39.214844 177.039062 39.867188 C 177.691406 40.582031 177.492188 41.496094 177.296875 43.0625 L 177.296875 43.386719 C 176.515625 47.625 175.667969 51.996094 174.628906 56.429688 C 174.628906 56.429688 174.691406 56.429688 174.757812 56.429688 C 175.410156 56.296875 175.996094 56.101562 176.648438 55.972656 C 177.886719 51.015625 179.1875 45.996094 180.75 41.105469 C 181.078125 39.996094 181.792969 39.148438 182.835938 38.691406 C 185.507812 37.519531 189.742188 39.277344 191.957031 40.453125 C 195.542969 42.277344 198.019531 45.214844 200.363281 48.082031 C 201.015625 48.863281 201.730469 49.710938 202.382812 50.496094 C 203.296875 51.40625 203.621094 52.320312 203.296875 53.039062 C 202.96875 53.691406 202.316406 54.015625 201.144531 54.015625 C 193.390625 54.015625 185.703125 55.710938 178.277344 57.539062 C 176.972656 63.082031 175.734375 68.6875 174.5625 74.164062 C 172.671875 83.035156 170.71875 92.292969 168.175781 101.164062 C 168.175781 101.164062 168.175781 101.226562 168.175781 101.292969 C 167.65625 102.46875 166.9375 103.117188 166.027344 103.316406 C 164.070312 103.640625 162.117188 101.554688 160.75 100.054688 C 160.554688 99.859375 160.359375 99.664062 160.226562 99.46875 C 157.230469 96.140625 154.167969 92.882812 151.171875 89.6875 C 147.652344 85.96875 144.003906 82.1875 140.617188 78.273438 C 137.878906 74.753906 136.382812 73.90625 132.210938 75.339844 L 130.257812 75.863281 C 128.757812 76.253906 127.257812 76.710938 125.695312 77.101562 C 125.824219 79.121094 127.390625 81.144531 130.257812 83.164062 L 154.167969 101.292969 C 155.40625 102.269531 156.710938 103.25 157.949219 104.292969 C 160.292969 106.183594 162.703125 108.140625 165.179688 109.707031 C 167.65625 111.269531 169.871094 110.683594 171.957031 107.878906 C 172.019531 107.8125 172.085938 107.683594 172.152344 107.617188 C 172.867188 98.945312 175.148438 88.382812 177.167969 78.992188 C 178.40625 73.058594 179.515625 67.972656 179.839844 64.90625 C 180.035156 63.40625 180.492188 60.667969 182.96875 59.949219 C 182.96875 59.949219 182.96875 59.949219 183.03125 59.949219 C 186.8125 59.101562 190.71875 58.644531 194.433594 58.191406 C 196.257812 57.992188 198.148438 57.734375 199.972656 57.472656 C 200.234375 57.472656 200.429688 57.472656 200.6875 57.40625 C 201.925781 57.210938 203.554688 57.015625 204.597656 58.058594 C 204.597656 58.058594 204.597656 58.058594 204.664062 58.125 C 205.25 58.90625 205.121094 60.082031 204.144531 61.644531 C 200.625 66.992188 197.234375 72.535156 193.914062 77.882812 C 187.660156 88.054688 181.144531 98.488281 173.976562 108.335938 C 173.453125 115.117188 173.84375 120.59375 176.125 122.746094 C 178.40625 124.964844 181.988281 124.898438 185.441406 124.636719 C 202.058594 123.398438 219.257812 126.921875 235.285156 134.8125 C 250.730469 142.441406 264.28125 153.65625 274.511719 167.414062 C 296.011719 198.714844 299.007812 232.101562 283.109375 261.578125 C 265.128906 294.769531 225.449219 317.460938 185.835938 317.460938 C 184.988281 317.460938 184.140625 317.460938 183.292969 317.460938 C 146.546875 316.550781 117.09375 296.726562 100.351562 261.707031 C 89.46875 237.644531 89.078125 211.105469 99.242188 186.976562 C 110.320312 160.765625 132.734375 139.898438 160.8125 129.789062 C 161.660156 129.398438 162.703125 128.941406 163.484375 128.222656 C 164.332031 127.441406 164.789062 126.203125 164.660156 125.09375 C 164.660156 124.507812 164.332031 123.726562 163.484375 123.203125 C 160.226562 121.835938 156.578125 123.203125 152.996094 124.507812 C 151.824219 124.964844 150.585938 125.421875 149.347656 125.746094 C 116.769531 137.484375 92.988281 165.394531 85.558594 200.28125 C 78.132812 235.363281 88.753906 270.707031 113.96875 294.769531 C 138.402344 320.070312 177.496094 331.484375 215.9375 324.503906 C 250.335938 318.246094 277.117188 298.289062 289.496094 269.730469 C 303.894531 238.363281 302.265625 203.867188 285.066406 175.109375 C 266.171875 143.613281 232.027344 123.398438 193.71875 121.117188 C 193.71875 121.117188 193.652344 121.117188 193.585938 121.117188 C 192.414062 120.921875 190.851562 120.921875 189.222656 120.855469 C 185.183594 120.855469 180.621094 120.789062 178.601562 118.050781 C 176.257812 114.464844 178.796875 108.726562 179.96875 106.378906 C 181.925781 102.921875 185.507812 101.164062 191.046875 100.96875 C 191.046875 100.96875 191.113281 100.96875 191.175781 100.96875 C 226.6875 103.964844 256.65625 118.640625 277.703125 143.289062 C 296.664062 165.460938 307.023438 194.019531 306.890625 223.820312 C 306.761719 252.1875 296.921875 278.921875 279.203125 298.941406 C 259.265625 321.441406 230.335938 334.808594 195.410156 337.480469 C 195.410156 337.480469 195.410156 337.480469 195.347656 337.480469 Z M 136.640625 116.617188 C 89.273438 145.894531 67.773438 198.195312 81.910156 249.773438 C 95.789062 300.574219 140.355469 334.027344 195.410156 335.070312 C 270.863281 329.199219 304.808594 274.683594 305.003906 223.300781 C 305.199219 169.761719 269.625 109.117188 191.113281 102.402344 C 186.289062 102.597656 183.292969 103.964844 181.730469 106.769531 C 180.101562 109.964844 178.863281 114.140625 180.230469 116.421875 C 181.730469 118.3125 185.703125 118.378906 189.289062 118.441406 C 190.980469 118.441406 192.609375 118.441406 193.914062 118.703125 C 232.875 121.050781 267.539062 141.59375 286.757812 173.675781 C 295.230469 187.824219 300.050781 203.214844 301.09375 219.320312 C 302.203125 236.472656 298.878906 253.558594 291.253906 270.054688 C 278.613281 299.203125 251.316406 319.550781 216.261719 325.941406 C 197.691406 329.332031 178.40625 328.417969 160.359375 323.398438 C 141.527344 318.179688 125.042969 308.59375 112.597656 295.683594 C 86.992188 271.164062 76.179688 235.167969 83.671875 199.367188 C 91.164062 163.765625 115.53125 135.332031 148.695312 123.332031 C 148.695312 123.332031 148.695312 123.332031 148.761719 123.332031 C 149.867188 123.007812 151.042969 122.617188 152.277344 122.160156 C 155.992188 120.789062 160.292969 119.289062 164.269531 120.921875 C 164.269531 120.921875 164.332031 120.921875 164.398438 120.921875 C 165.636719 121.636719 166.417969 122.878906 166.613281 124.3125 C 166.808594 126.007812 166.09375 127.832031 164.789062 129.074219 C 163.8125 129.984375 162.574219 130.570312 161.464844 131.027344 C 133.90625 141.003906 111.882812 161.417969 101 187.175781 C 91.03125 210.78125 91.425781 236.796875 102.042969 260.339844 C 118.464844 294.640625 147.328125 314.070312 183.292969 314.984375 C 222.972656 315.960938 263.304688 293.464844 281.351562 260.207031 C 296.921875 231.449219 293.925781 198.78125 272.882812 168.132812 C 252.160156 140.289062 217.890625 123.789062 185.574219 126.203125 C 181.664062 126.464844 177.625 126.527344 174.757812 123.789062 C 172.28125 121.441406 171.566406 116.617188 171.761719 110.421875 C 169.414062 112.507812 166.679688 112.703125 163.941406 110.945312 C 161.335938 109.3125 158.925781 107.292969 156.515625 105.402344 C 155.277344 104.421875 154.039062 103.378906 152.800781 102.46875 L 128.953125 84.402344 C 125.695312 82.121094 123.9375 79.773438 123.609375 77.296875 C 120.484375 78.144531 117.289062 78.992188 114.097656 79.707031 C 113.25 79.90625 112.859375 80.101562 112.664062 80.230469 C 112.730469 80.359375 112.925781 80.554688 113.382812 80.882812 C 117.421875 83.816406 121.460938 86.945312 125.371094 89.945312 C 134.425781 96.859375 143.808594 104.03125 153.84375 109.835938 L 154.039062 109.964844 C 155.601562 111.007812 158.273438 112.835938 158.207031 114.988281 C 158.207031 116.03125 157.554688 116.941406 156.253906 117.660156 C 154.886719 118.441406 153.0625 118.441406 151.367188 117.660156 C 150.128906 117.074219 149.085938 116.160156 148.109375 115.3125 C 147 114.335938 145.957031 113.421875 144.722656 113.03125 C 142.703125 112.378906 140.679688 113.75 138.726562 115.117188 C 137.945312 115.640625 137.226562 116.160156 136.445312 116.550781 Z M 183.488281 61.582031 C 182.445312 61.90625 182.054688 63.082031 181.792969 64.90625 C 181.46875 68.035156 180.359375 73.1875 179.058594 79.121094 C 177.429688 86.621094 175.472656 95.945312 174.496094 104.097656 C 180.882812 95.164062 186.679688 85.707031 192.347656 76.511719 C 195.671875 71.167969 199.058594 65.625 202.578125 60.210938 C 202.96875 59.625 203.101562 59.167969 203.164062 58.90625 C 202.710938 58.710938 201.730469 58.839844 201.082031 58.90625 C 200.820312 58.90625 200.558594 58.972656 200.296875 59.039062 C 198.472656 59.296875 196.585938 59.558594 194.761719 59.753906 C 191.046875 60.210938 187.265625 60.667969 183.554688 61.449219 Z M 135.339844 72.535156 C 138.140625 72.535156 139.964844 74.101562 142.113281 76.839844 C 145.4375 80.6875 149.085938 84.46875 152.605469 88.1875 C 155.601562 91.382812 158.730469 94.640625 161.726562 97.96875 C 161.855469 98.097656 162.050781 98.292969 162.246094 98.554688 C 163.09375 99.46875 164.855469 101.359375 165.765625 101.226562 C 166.09375 101.226562 166.289062 100.769531 166.417969 100.445312 C 168.894531 91.640625 170.847656 82.511719 172.738281 73.644531 C 173.84375 68.492188 174.953125 63.210938 176.191406 57.929688 C 175.867188 57.992188 175.605469 58.058594 175.277344 58.125 L 174.171875 58.386719 C 171.695312 68.425781 168.308594 79.121094 163.875 91.121094 C 163.746094 91.445312 163.484375 91.640625 163.160156 91.707031 C 162.835938 91.773438 162.507812 91.707031 162.246094 91.445312 C 158.792969 88.1875 155.339844 84.796875 152.019531 81.535156 C 148.695312 78.273438 145.242188 74.882812 141.789062 71.621094 C 141.527344 71.363281 141.398438 71.035156 141.527344 70.644531 C 141.59375 70.320312 141.855469 70.058594 142.246094 69.925781 C 149.542969 67.90625 155.796875 66.210938 162.769531 64.644531 C 165.570312 63.929688 165.832031 63.144531 165.246094 60.472656 L 130.972656 68.820312 C 130.582031 69.144531 130.257812 69.472656 129.867188 69.796875 C 127.847656 71.492188 126.542969 73.1875 126.023438 74.6875 C 127.257812 74.363281 128.496094 74.035156 129.671875 73.710938 L 131.625 73.1875 C 133.058594 72.730469 134.296875 72.46875 135.339844 72.46875 Z M 144.394531 71.425781 C 147.457031 74.296875 150.453125 77.296875 153.386719 80.164062 C 156.382812 83.101562 159.445312 86.097656 162.574219 89.035156 C 166.613281 78.078125 169.742188 68.167969 172.085938 58.839844 C 171.890625 58.839844 171.695312 58.972656 171.5 58.972656 L 167.199219 60.015625 C 167.851562 63.277344 167.589844 65.492188 163.226562 66.535156 C 156.839844 67.972656 151.042969 69.535156 144.460938 71.363281 Z M 155.863281 44.820312 C 154.558594 44.820312 153.0625 45.082031 151.300781 45.667969 C 151.300781 45.667969 151.300781 45.667969 151.238281 45.667969 C 141.984375 47.953125 132.40625 50.300781 123.285156 53.558594 C 116.703125 55.90625 113.707031 64.1875 111.296875 70.773438 L 111.101562 71.296875 C 111.035156 71.492188 110.96875 71.621094 110.96875 71.6875 C 111.167969 71.6875 111.425781 71.6875 111.949219 71.492188 L 130.125 67.058594 C 133.96875 63.667969 137.945312 60.40625 142.050781 57.34375 C 144.722656 55.386719 147.195312 53.234375 149.542969 51.148438 C 152.082031 48.929688 154.558594 46.710938 157.230469 44.820312 C 156.839844 44.757812 156.382812 44.691406 155.863281 44.691406 Z M 159.445312 45.800781 C 156.449219 47.820312 153.648438 50.234375 150.78125 52.710938 C 148.371094 54.796875 145.894531 57.015625 143.15625 58.972656 C 140.09375 61.253906 137.097656 63.601562 134.230469 66.078125 L 164.789062 58.644531 C 164.59375 57.796875 164.398438 56.949219 164.136719 56.101562 C 163.09375 51.667969 162.050781 47.496094 159.445312 45.734375 Z M 161.207031 44.691406 C 163.941406 47.039062 164.984375 51.277344 166.027344 55.710938 C 166.222656 56.558594 166.417969 57.40625 166.679688 58.253906 L 170.980469 57.210938 C 171.5 57.082031 172.019531 56.949219 172.609375 56.820312 C 173.714844 52.058594 174.691406 47.496094 175.410156 42.929688 L 175.410156 42.605469 C 175.539062 42.019531 175.667969 41.367188 175.667969 41.039062 C 175.410156 41.039062 174.824219 40.972656 173.976562 41.039062 C 168.957031 41.171875 164.917969 42.605469 161.269531 44.757812 Z M 184.921875 40.0625 C 184.402344 40.0625 184.007812 40.125 183.617188 40.257812 C 183.097656 40.453125 182.835938 40.84375 182.640625 41.429688 C 181.207031 45.929688 179.96875 50.558594 178.796875 55.191406 C 186.09375 53.429688 193.523438 51.863281 201.210938 51.863281 C 201.210938 51.800781 201.082031 51.734375 201.015625 51.601562 C 200.296875 50.753906 199.582031 49.90625 198.863281 49.125 C 196.519531 46.257812 194.238281 43.582031 191.046875 41.953125 C 189.089844 40.972656 186.617188 40.0625 184.855469 40.0625 Z M 184.921875 40.0625 " fill-opacity="1" fill-rule="nonzero"/></g></svg>